<svg width="140" height="40" viewBox="0 0 140 40" fill="none" xmlns="http://www.w3.org/2000/svg">
<path d="M134.815 0.791304C137.216 0.791304 139.169 2.65181 139.169 4.93824V34.568C139.169 36.8545 137.216 38.715 134.815 38.715H5.18518C2.78444 38.715 0.830926 36.8545 0.830926 34.568V4.93824C0.830926 2.65181 2.78444 0.791304 5.18518 0.791304H134.815ZM134.815 -5.74083e-05H5.18518C2.33463 -5.74083e-05 0 2.22341 0 4.93824V34.568C0 37.2829 2.33463 39.5063 5.18518 39.5063H134.815C137.665 39.5063 140 37.2829 140 34.568V4.93824C140 2.22341 137.665 -5.74083e-05 134.815 -5.74083e-05Z" fill="white"/>
<path d="M31.2439 19.5398C31.2138 16.3566 33.9807 14.808 34.1072 14.7359C32.5402 12.56 30.1115 12.2628 29.258 12.2391C27.2181 12.0346 25.2395 13.4015 24.2004 13.4015C23.1405 13.4015 21.5404 12.2588 19.8158 12.2924C17.5965 12.325 15.5204 13.5487 14.3817 15.449C12.0318 19.3235 13.7844 25.0174 16.0358 28.1493C17.162 29.6831 18.478 31.3957 20.2005 31.3355C21.8857 31.2693 22.5152 30.3123 24.5488 30.3123C26.5638 30.3123 27.1549 31.3355 28.9116 31.2969C30.7202 31.2693 31.8589 29.7562 32.9457 28.2085C34.2472 26.4505 34.7698 24.7191 34.7906 24.6302C34.7481 24.6164 31.2781 23.3552 31.2439 19.5398Z" fill="white"/>
<path d="M27.9254 10.1788C28.8318 9.09929 29.4519 7.63064 29.2798 6.14026C27.9679 6.19557 26.3273 7.00446 25.3826 8.06027C24.5467 8.99065 23.8001 10.5156 23.993 11.9497C25.4666 12.0544 26.9796 11.2415 27.9254 10.1788Z" fill="white"/>
<path d="M55.6318 31.115H53.2767L51.9866 27.2542H47.5025L46.2736 31.115H43.9807L48.4234 17.9712H51.1674L55.6318 31.115ZM51.5977 25.6344L50.4311 22.2023C50.3077 21.8517 50.0764 21.026 49.7352 19.7263H49.6937C49.5579 20.2853 49.3391 21.111 49.0383 22.2023L47.8924 25.6344H51.5977Z" fill="white"/>
<path d="M67.0569 26.2597C67.0569 27.8716 66.5996 29.1456 65.6849 30.0809C64.8656 30.9135 63.8483 31.3294 62.6339 31.3294C61.3231 31.3294 60.3815 30.881 59.808 29.9842H59.7665V34.9768H57.5556V24.7575C57.5556 23.7441 57.5276 22.7041 57.4736 21.6374H59.4181L59.5415 23.1397H59.583C60.3203 22.0078 61.4393 21.4429 62.9409 21.4429C64.1148 21.4429 65.0948 21.8844 65.8788 22.7683C66.6649 23.6533 67.0569 24.8167 67.0569 26.2597ZM64.8044 26.3367C64.8044 25.4143 64.5867 24.6538 64.149 24.0552C63.671 23.431 63.029 23.1189 62.2243 23.1189C61.6788 23.1189 61.1831 23.2928 60.7403 23.6355C60.2964 23.9812 60.0061 24.4325 59.8702 24.9915C59.8018 25.2523 59.7676 25.4656 59.7676 25.6335V27.2138C59.7676 27.9032 59.9895 28.4849 60.4333 28.96C60.8772 29.435 61.4538 29.6721 62.1631 29.6721C62.9959 29.6721 63.644 29.3659 64.1076 28.7555C64.5721 28.1441 64.8044 27.3382 64.8044 26.3367Z" fill="white"/>
<path d="M78.5026 26.2597C78.5026 27.8716 78.0453 29.1456 77.1296 30.0809C76.3114 30.9135 75.294 31.3294 74.0797 31.3294C72.7689 31.3294 71.8272 30.881 71.2548 29.9842H71.2133V34.9768H69.0023V24.7575C69.0023 23.7441 68.9743 22.7041 68.9204 21.6374H70.8649L70.9883 23.1397H71.0297C71.766 22.0078 72.885 21.4429 74.3877 21.4429C75.5606 21.4429 76.5406 21.8844 77.3266 22.7683C78.1096 23.6533 78.5026 24.8167 78.5026 26.2597ZM76.2502 26.3367C76.2502 25.4143 76.0314 24.6538 75.5937 24.0552C75.1157 23.431 74.4758 23.1189 73.67 23.1189C73.1235 23.1189 72.6289 23.2928 72.185 23.6355C71.7412 23.9812 71.4518 24.4325 71.316 24.9915C71.2486 25.2523 71.2133 25.4656 71.2133 25.6335V27.2138C71.2133 27.9032 71.4352 28.4849 71.877 28.96C72.3209 29.434 72.8975 29.6721 73.6089 29.6721C74.4416 29.6721 75.0897 29.3659 75.5533 28.7555C76.0179 28.1441 76.2502 27.3382 76.2502 26.3367Z" fill="white"/>
<path d="M91.2997 27.4291C91.2997 28.5471 90.8921 29.4568 90.0739 30.159C89.1748 30.9264 87.9231 31.3096 86.3147 31.3096C84.8296 31.3096 83.6391 31.037 82.7379 30.4909L83.2502 28.7358C84.2209 29.2948 85.2859 29.5753 86.4464 29.5753C87.2791 29.5753 87.9273 29.3955 88.3929 29.038C88.8564 28.6805 89.0877 28.2005 89.0877 27.602C89.0877 27.0686 88.8969 26.6192 88.5142 26.2548C88.1336 25.8903 87.4979 25.5516 86.6102 25.2385C84.1939 24.3802 82.9868 23.1229 82.9868 21.4696C82.9868 20.3891 83.4099 19.5031 84.2572 18.8138C85.1013 18.1234 86.2275 17.7787 87.6358 17.7787C88.8917 17.7787 89.935 17.9871 90.7677 18.4029L90.215 20.1194C89.4372 19.7165 88.5578 19.515 87.5736 19.515C86.7958 19.515 86.1881 19.6977 85.7526 20.0612C85.3844 20.3861 85.1998 20.7822 85.1998 21.2513C85.1998 21.7708 85.4104 22.2004 85.8335 22.5382C86.2016 22.8503 86.8705 23.1881 87.8412 23.5525C89.0286 24.0079 89.9007 24.5402 90.4618 25.1506C91.0207 25.759 91.2997 26.5205 91.2997 27.4291Z" fill="white"/>
<path d="M98.6098 23.2176H96.1727V27.8191C96.1727 28.9895 96.6021 29.5742 97.4628 29.5742C97.8579 29.5742 98.1856 29.5416 98.4449 29.4764L98.5061 31.0755C98.0705 31.2305 97.497 31.3085 96.7866 31.3085C95.9135 31.3085 95.2311 31.0547 94.7385 30.548C94.248 30.0404 94.0012 29.189 94.0012 27.993V23.2157H92.5493V21.6354H94.0012V19.9001L96.1727 19.2759V21.6354H98.6098V23.2176Z" fill="white"/>
<path d="M109.605 26.2982C109.605 27.755 109.168 28.9511 108.295 29.8864C107.379 30.8493 106.163 31.3293 104.648 31.3293C103.188 31.3293 102.026 30.8681 101.159 29.9456C100.292 29.0232 99.8583 27.8587 99.8583 26.4552C99.8583 24.9866 100.304 23.7836 101.199 22.8483C102.092 21.912 103.297 21.4438 104.812 21.4438C106.272 21.4438 107.447 21.9051 108.334 22.8285C109.182 23.7244 109.605 24.8809 109.605 26.2982ZM107.311 26.3663C107.311 25.4923 107.115 24.7426 106.718 24.1174C106.255 23.3609 105.592 22.9836 104.733 22.9836C103.845 22.9836 103.17 23.3619 102.706 24.1174C102.309 24.7436 102.113 25.5051 102.113 26.4059C102.113 27.2799 102.309 28.0296 102.706 28.6538C103.184 29.4103 103.852 29.7876 104.714 29.7876C105.558 29.7876 106.22 29.4024 106.699 28.634C107.106 27.997 107.311 27.2394 107.311 26.3663Z" fill="white"/>
<path d="M116.792 23.4893C116.573 23.4508 116.34 23.431 116.095 23.431C115.317 23.431 114.716 23.7105 114.293 24.2705C113.925 24.7644 113.74 25.3886 113.74 26.1422V31.115H111.53L111.551 24.6221C111.551 23.5298 111.523 22.5352 111.468 21.6384H113.394L113.475 23.4518H113.536C113.769 22.8286 114.137 22.3268 114.641 21.9505C115.134 21.6118 115.666 21.4429 116.239 21.4429C116.444 21.4429 116.628 21.4567 116.792 21.4814V23.4893Z" fill="white"/>
<path d="M126.68 25.9278C126.68 26.3051 126.654 26.6231 126.599 26.8829H119.966C119.992 27.8192 120.313 28.5352 120.929 29.029C121.488 29.4705 122.211 29.6918 123.098 29.6918C124.08 29.6918 124.976 29.5426 125.782 29.2434L126.129 30.7051C125.187 31.0962 124.075 31.2908 122.792 31.2908C121.249 31.2908 120.038 30.8582 119.157 29.994C118.277 29.1298 117.836 27.9693 117.836 26.5135C117.836 25.0843 118.246 23.8942 119.066 22.9451C119.925 21.9317 121.085 21.425 122.546 21.425C123.98 21.425 125.066 21.9317 125.803 22.9451C126.387 23.75 126.68 24.7456 126.68 25.9278ZM124.572 25.3816C124.586 24.7574 124.442 24.2182 124.143 23.7628C123.76 23.1772 123.172 22.8848 122.381 22.8848C121.658 22.8848 121.07 23.1702 120.621 23.7431C120.253 24.1984 120.034 24.7446 119.966 25.3806H124.572V25.3816Z" fill="white"/>
<path d="M50.8667 9.8852C50.8667 11.0477 50.5007 11.9227 49.7696 12.5104C49.0924 13.0526 48.13 13.3242 46.8835 13.3242C46.2654 13.3242 45.7365 13.2986 45.2937 13.2472V6.89555C45.8713 6.80666 46.4936 6.76123 47.1656 6.76123C48.353 6.76123 49.2479 7.00716 49.8515 7.49901C50.5276 8.05507 50.8667 8.85013 50.8667 9.8852ZM49.7208 9.91384C49.7208 9.16026 49.5113 8.58248 49.0924 8.17951C48.6734 7.77753 48.0616 7.57605 47.2558 7.57605C46.9136 7.57605 46.6221 7.59778 46.3805 7.64321V12.4719C46.5143 12.4916 46.759 12.5005 47.1147 12.5005C47.9464 12.5005 48.5884 12.2803 49.0405 11.8398C49.4927 11.3993 49.7208 10.7573 49.7208 9.91384Z" fill="white"/>
<path d="M56.9428 10.9008C56.9428 11.6169 56.7281 12.2035 56.2988 12.6638C55.8487 13.1369 55.2524 13.3729 54.5078 13.3729C53.7902 13.3729 53.2188 13.1468 52.7926 12.6924C52.3674 12.2391 52.1548 11.6672 52.1548 10.9779C52.1548 10.2569 52.3736 9.66525 52.8133 9.20599C53.253 8.74673 53.8441 8.5166 54.5887 8.5166C55.3063 8.5166 55.8829 8.74278 56.3195 9.19611C56.7343 9.63661 56.9428 10.2055 56.9428 10.9008ZM55.8155 10.9344C55.8155 10.5048 55.718 10.1364 55.5241 9.8292C55.296 9.45784 54.9714 9.27216 54.5493 9.27216C54.1127 9.27216 53.7809 9.45784 53.5527 9.8292C53.3577 10.1364 53.2613 10.5107 53.2613 10.9532C53.2613 11.3828 53.3588 11.7512 53.5527 12.0584C53.7881 12.4297 54.1158 12.6154 54.5389 12.6154C54.9538 12.6154 55.2794 12.4267 55.5137 12.0485C55.7149 11.7354 55.8155 11.364 55.8155 10.9344Z" fill="white"/>
<path d="M65.0897 8.61121L63.56 13.267H62.5645L61.9309 11.2453C61.7701 10.7406 61.6395 10.2389 61.5378 9.74109H61.5181C61.4237 10.2527 61.2931 10.7534 61.1251 11.2453L60.452 13.267H59.4451L58.0067 8.61121H59.1236L59.6763 10.8246C59.8101 11.348 59.92 11.8468 60.0082 12.3189H60.0279C60.1088 11.9297 60.2426 11.4339 60.4313 10.8344L61.1251 8.61219H62.0107L62.6755 10.787C62.8362 11.3174 62.9669 11.828 63.0674 12.3199H63.0975C63.1712 11.8409 63.2821 11.3302 63.4294 10.787L64.0226 8.61219H65.0897V8.61121Z" fill="white"/>
<path d="M70.724 13.2674H69.6372V10.6007C69.6372 9.77899 69.3095 9.36812 68.652 9.36812C68.3295 9.36812 68.0692 9.48071 67.867 9.70689C67.6668 9.93306 67.5652 10.1997 67.5652 10.5049V13.2664H66.4784V9.94195C66.4784 9.53306 66.4649 9.0896 66.439 8.6096H67.3941L67.4449 9.3375H67.475C67.6015 9.11133 67.7902 8.92466 68.0381 8.77552C68.3326 8.6017 68.6624 8.51379 69.0233 8.51379C69.4795 8.51379 69.8591 8.65404 70.1609 8.93553C70.5363 9.28022 70.724 9.79479 70.724 10.4783V13.2674Z" fill="white"/>
<path d="M73.7209 13.2672H72.6351V6.4751H73.7209V13.2672Z" fill="white"/>
<path d="M80.1194 10.9008C80.1194 11.6169 79.9048 12.2035 79.4754 12.6638C79.0253 13.1369 78.428 13.3729 77.6845 13.3729C76.9658 13.3729 76.3944 13.1468 75.9692 12.6924C75.544 12.2391 75.3314 11.6672 75.3314 10.9779C75.3314 10.2569 75.5502 9.66525 75.9899 9.20599C76.4296 8.74673 77.0208 8.5166 77.7643 8.5166C78.483 8.5166 79.0585 8.74278 79.4962 9.19611C79.911 9.63661 80.1194 10.2055 80.1194 10.9008ZM78.9911 10.9344C78.9911 10.5048 78.8936 10.1364 78.6997 9.8292C78.4726 9.45784 78.147 9.27216 77.7259 9.27216C77.2883 9.27216 76.9565 9.45784 76.7293 9.8292C76.5344 10.1364 76.4379 10.5107 76.4379 10.9532C76.4379 11.3828 76.5354 11.7512 76.7293 12.0584C76.9648 12.4297 77.2925 12.6154 77.7156 12.6154C78.1304 12.6154 78.455 12.4267 78.6893 12.0485C78.8916 11.7354 78.9911 11.364 78.9911 10.9344Z" fill="white"/>
<path d="M85.3793 13.2672H84.4034L84.3226 12.7309H84.2925C83.9586 13.1586 83.4826 13.3729 82.8645 13.3729C82.403 13.3729 82.0297 13.2317 81.7486 12.9512C81.4935 12.6964 81.366 12.3793 81.366 12.003C81.366 11.4341 81.6149 11.0006 82.1157 10.7003C82.6156 10.4001 83.3187 10.2529 84.224 10.2598V10.1729C84.224 9.55957 83.886 9.2534 83.2088 9.2534C82.7266 9.2534 82.3014 9.36895 81.9343 9.59809L81.7134 8.91858C82.1676 8.65092 82.7286 8.5166 83.3903 8.5166C84.6679 8.5166 85.3088 9.15858 85.3088 10.4425V12.1571C85.3088 12.6223 85.3326 12.9927 85.3793 13.2672ZM84.251 11.6672V10.9492C83.0522 10.9295 82.4528 11.2425 82.4528 11.8875C82.4528 12.1305 82.5212 12.3122 82.6612 12.4337C82.8012 12.5551 82.9796 12.6154 83.1922 12.6154C83.4307 12.6154 83.6537 12.5433 83.8569 12.4001C84.0612 12.2559 84.1867 12.0732 84.2334 11.849C84.2448 11.7986 84.251 11.7374 84.251 11.6672Z" fill="white"/>
<path d="M91.5548 13.2672H90.5904L90.5396 12.5196H90.5095C90.2015 13.0885 89.6768 13.3729 88.9394 13.3729C88.3504 13.3729 87.8599 13.1527 87.471 12.7122C87.0821 12.2717 86.8882 11.6998 86.8882 10.9976C86.8882 10.244 87.0987 9.63364 87.5218 9.16746C87.9314 8.73289 88.4334 8.5156 89.0307 8.5156C89.6871 8.5156 90.1465 8.72598 90.4079 9.14771H90.4286V6.4751H91.5165V12.0129C91.5165 12.4662 91.5289 12.884 91.5548 13.2672ZM90.4286 11.3038V10.5275C90.4286 10.3931 90.4182 10.2845 90.3985 10.2015C90.3374 9.95265 90.2057 9.74327 90.0055 9.57438C89.8033 9.40549 89.5596 9.32055 89.2785 9.32055C88.8731 9.32055 88.5557 9.47363 88.3224 9.7808C88.0911 10.088 87.974 10.4801 87.974 10.9591C87.974 11.4193 88.0849 11.7927 88.3079 12.0801C88.5433 12.3862 88.8606 12.5393 89.2578 12.5393C89.6145 12.5393 89.8997 12.4119 90.1165 12.1561C90.326 11.9201 90.4286 11.6356 90.4286 11.3038Z" fill="white"/>
<path d="M100.85 10.9008C100.85 11.6169 100.635 12.2035 100.206 12.6638C99.7558 13.1369 99.1606 13.3729 98.4149 13.3729C97.6983 13.3729 97.1269 13.1468 96.6997 12.6924C96.2745 12.2391 96.0619 11.6672 96.0619 10.9779C96.0619 10.2569 96.2807 9.66525 96.7204 9.20599C97.1601 8.74673 97.7512 8.5166 98.4968 8.5166C99.2134 8.5166 99.7911 8.74278 100.227 9.19611C100.641 9.63661 100.85 10.2055 100.85 10.9008ZM99.7237 10.9344C99.7237 10.5048 99.6262 10.1364 99.4323 9.8292C99.2031 9.45784 98.8795 9.27216 98.4564 9.27216C98.0209 9.27216 97.689 9.45784 97.4598 9.8292C97.2649 10.1364 97.1684 10.5107 97.1684 10.9532C97.1684 11.3828 97.2659 11.7512 97.4598 12.0584C97.6952 12.4297 98.0229 12.6154 98.446 12.6154C98.8609 12.6154 99.1875 12.4267 99.4219 12.0485C99.622 11.7354 99.7237 11.364 99.7237 10.9344Z" fill="white"/>
<path d="M106.694 13.2674H105.608V10.6007C105.608 9.77899 105.28 9.36812 104.622 9.36812C104.299 9.36812 104.039 9.48071 103.838 9.70689C103.636 9.93306 103.536 10.1997 103.536 10.5049V13.2664H102.448V9.94195C102.448 9.53306 102.435 9.0896 102.41 8.6096H103.364L103.414 9.3375H103.445C103.572 9.11133 103.761 8.92466 104.008 8.77552C104.303 8.6017 104.632 8.51379 104.994 8.51379C105.449 8.51379 105.829 8.65404 106.13 8.93553C106.507 9.28022 106.694 9.79479 106.694 10.4783V13.2674Z" fill="white"/>
<path d="M114.008 9.38685H112.811V11.6486C112.811 12.2234 113.024 12.5108 113.445 12.5108C113.64 12.5108 113.801 12.495 113.929 12.4624L113.957 13.2476C113.742 13.3247 113.46 13.3632 113.113 13.3632C112.683 13.3632 112.349 13.2387 112.108 12.9898C111.865 12.7409 111.745 12.3222 111.745 11.7345V9.38685H111.03V8.61154H111.745V7.7582L112.81 7.45203V8.61055H114.007V9.38685H114.008Z" fill="white"/>
<path d="M119.761 13.2672H118.673V10.6203C118.673 9.78574 118.346 9.36795 117.689 9.36795C117.185 9.36795 116.841 9.60993 116.652 10.0939C116.62 10.1956 116.601 10.3201 116.601 10.4662V13.2663H115.516V6.4751H116.601V9.28104H116.622C116.964 8.77042 117.455 8.5156 118.091 8.5156C118.541 8.5156 118.913 8.65585 119.209 8.93733C119.577 9.28795 119.761 9.80944 119.761 10.4988V13.2672Z" fill="white"/>
<path d="M125.696 10.7191C125.696 10.9047 125.682 11.0608 125.656 11.1882H122.396C122.411 11.6484 122.566 11.9991 122.868 12.242C123.144 12.4593 123.5 12.568 123.935 12.568C124.418 12.568 124.857 12.4949 125.253 12.3477L125.423 13.0667C124.96 13.2583 124.414 13.3541 123.783 13.3541C123.026 13.3541 122.43 13.1418 121.998 12.7171C121.565 12.2924 121.35 11.7225 121.35 11.0075C121.35 10.3052 121.55 9.72054 121.954 9.25436C122.375 8.75658 122.944 8.50769 123.663 8.50769C124.366 8.50769 124.9 8.75658 125.261 9.25436C125.552 9.64943 125.696 10.1383 125.696 10.7191ZM124.659 10.4514C124.667 10.1442 124.596 9.87955 124.449 9.65634C124.26 9.36893 123.973 9.22473 123.584 9.22473C123.229 9.22473 122.94 9.36498 122.719 9.64646C122.538 9.87066 122.432 10.1383 122.396 10.4514H124.659Z" fill="white"/>
</svg>
