<svg width="24" height="24" viewBox="0 0 24 24" fill="none" xmlns="http://www.w3.org/2000/svg">
<path d="M8.44189 15.7217H18.1289C18.4526 15.7217 18.7349 15.4561 18.7349 15.0991C18.7349 14.7422 18.4526 14.4766 18.1289 14.4766H8.58301C8.10986 14.4766 7.81934 14.1445 7.74463 13.6382L7.61182 12.7666H18.1455C19.3574 12.7666 19.98 12.0195 20.1543 10.8325L20.8184 6.44141C20.835 6.3335 20.8516 6.20068 20.8516 6.12598C20.8516 5.72754 20.5527 5.45361 20.0962 5.45361H6.54102L6.3833 4.39941C6.30029 3.76025 6.06787 3.43652 5.22119 3.43652H2.30762C1.97559 3.43652 1.69336 3.72705 1.69336 4.05908C1.69336 4.39941 1.97559 4.68994 2.30762 4.68994H5.11328L6.44141 13.8042C6.61572 14.9829 7.23828 15.7217 8.44189 15.7217ZM19.4404 6.70703L18.8511 10.6831C18.7847 11.1978 18.5107 11.5132 18.021 11.5132L7.4292 11.5215L6.72363 6.70703H19.4404ZM9.09766 19.7559C9.84473 19.7559 10.4424 19.1665 10.4424 18.4111C10.4424 17.6641 9.84473 17.0664 9.09766 17.0664C8.34229 17.0664 7.74463 17.6641 7.74463 18.4111C7.74463 19.1665 8.34229 19.7559 9.09766 19.7559ZM16.8589 19.7559C17.6143 19.7559 18.2119 19.1665 18.2119 18.4111C18.2119 17.6641 17.6143 17.0664 16.8589 17.0664C16.1118 17.0664 15.5059 17.6641 15.5059 18.4111C15.5059 19.1665 16.1118 19.7559 16.8589 19.7559Z" fill="#1A1A1A"/>
</svg>
