<svg width="140" height="40" viewBox="0 0 140 40" fill="none" xmlns="http://www.w3.org/2000/svg">
<path d="M134.815 1.28483C137.216 1.28483 139.169 3.14534 139.169 5.43177V35.0616C139.169 37.348 137.216 39.2085 134.815 39.2085H5.18518C2.78444 39.2085 0.830926 37.348 0.830926 35.0616V5.43177C0.830926 3.14534 2.78444 1.28483 5.18518 1.28483H134.815ZM134.815 0.493471H5.18518C2.33463 0.493471 0 2.71694 0 5.43177V35.0616C0 37.7764 2.33463 39.9999 5.18518 39.9999H134.815C137.665 39.9999 140 37.7764 140 35.0616V5.43177C140 2.71694 137.665 0.493471 134.815 0.493471Z" fill="white"/>
<path d="M49.1737 10.6109C49.1737 11.4356 48.9144 12.0961 48.4037 12.5887C47.8164 13.1726 47.0516 13.4664 46.1144 13.4664C45.2187 13.4664 44.4538 13.1677 43.8264 12.5788C43.1977 11.9812 42.884 11.2479 42.884 10.3701C42.884 9.49234 43.1977 8.759 43.8264 8.1664C44.4538 7.57257 45.2187 7.2738 46.1144 7.2738C46.5603 7.2738 46.9855 7.36146 47.3913 7.52442C47.7957 7.68862 48.125 7.91084 48.3635 8.18492L47.8216 8.70591C47.4055 8.23801 46.839 8.00714 46.1144 8.00714C45.4611 8.00714 44.8946 8.22443 44.4137 8.6627C43.9379 9.10221 43.6994 9.67135 43.6994 10.3701C43.6994 11.0689 43.9379 11.643 44.4137 12.0825C44.8946 12.5158 45.4611 12.738 46.1144 12.738C46.8079 12.738 47.3913 12.5158 47.8514 12.0775C48.1548 11.7874 48.3272 11.3874 48.3726 10.8763H46.1144V10.1627H49.127C49.1633 10.317 49.1737 10.4664 49.1737 10.6109Z" fill="white" stroke="white" stroke-width="0.16" stroke-miterlimit="10"/>
<path d="M53.9531 8.13671H51.1233V10.0133H53.6744V10.7268H51.1233V12.6034H53.9531V13.3306H50.3221V7.40955H53.9531V8.13671Z" fill="white" stroke="white" stroke-width="0.16" stroke-miterlimit="10"/>
<path d="M57.3262 13.3306H56.525V8.13671H54.7893V7.40955H59.0632V8.13671H57.3262V13.3306Z" fill="white" stroke="white" stroke-width="0.16" stroke-miterlimit="10"/>
<path d="M62.1561 13.3306V7.40955H62.9559V13.3306H62.1561Z" fill="white" stroke="white" stroke-width="0.16" stroke-miterlimit="10"/>
<path d="M66.5013 13.3306H65.7067V8.13671H63.9645V7.40955H68.2435V8.13671H66.5013V13.3306Z" fill="white" stroke="white" stroke-width="0.16" stroke-miterlimit="10"/>
<path d="M76.335 12.5689C75.7219 13.1677 74.9623 13.4664 74.0561 13.4664C73.1448 13.4664 72.3852 13.1677 71.7721 12.5689C71.1602 11.9714 70.8556 11.238 70.8556 10.3701C70.8556 9.50221 71.1602 8.76887 71.7721 8.17134C72.3852 7.57257 73.1448 7.2738 74.0561 7.2738C74.9571 7.2738 75.7167 7.57257 76.3299 8.17628C76.9469 8.77875 77.2515 9.50715 77.2515 10.3701C77.2515 11.238 76.9469 11.9714 76.335 12.5689ZM72.3645 12.0726C72.826 12.5158 73.3873 12.738 74.0561 12.738C74.7198 12.738 75.2863 12.5158 75.7426 12.0726C76.2028 11.6294 76.4361 11.0602 76.4361 10.3701C76.4361 9.67999 76.2028 9.11085 75.7426 8.66764C75.2863 8.22443 74.7198 8.0022 74.0561 8.0022C73.3873 8.0022 72.826 8.22443 72.3645 8.66764C71.9043 9.11085 71.671 9.67999 71.671 10.3701C71.671 11.0602 71.9043 11.6294 72.3645 12.0726Z" fill="white" stroke="white" stroke-width="0.16" stroke-miterlimit="10"/>
<path d="M78.3754 13.3306V7.40955H79.3476L82.3706 12.0145H82.4056L82.3706 10.8762V7.40955H83.1704V13.3306H82.3356L79.17 8.49844H79.135L79.17 9.64166V13.3306H78.3754Z" fill="white" stroke="white" stroke-width="0.16" stroke-miterlimit="10"/>
<path d="M70.6584 21.9775C68.2227 21.9775 66.2329 23.7429 66.2329 26.1787C66.2329 28.5948 68.2227 30.3788 70.6584 30.3788C73.0994 30.3788 75.0892 28.5948 75.0892 26.1787C75.0892 23.7429 73.0994 21.9775 70.6584 21.9775ZM70.6584 28.7244C69.322 28.7244 68.1721 27.6738 68.1721 26.1787C68.1721 24.6639 69.322 23.6318 70.6584 23.6318C71.9949 23.6318 73.1499 24.6639 73.1499 26.1787C73.1499 27.6738 71.9949 28.7244 70.6584 28.7244ZM61.0023 21.9775C58.5614 21.9775 56.5768 23.7429 56.5768 26.1787C56.5768 28.5948 58.5614 30.3788 61.0023 30.3788C63.442 30.3788 65.4279 28.5948 65.4279 26.1787C65.4279 23.7429 63.442 21.9775 61.0023 21.9775ZM61.0023 28.7244C59.6646 28.7244 58.5109 27.6738 58.5109 26.1787C58.5109 24.6639 59.6646 23.6318 61.0023 23.6318C62.3388 23.6318 63.4886 24.6639 63.4886 26.1787C63.4886 27.6738 62.3388 28.7244 61.0023 28.7244ZM49.512 23.2651V25.0503H53.9881C53.8572 26.0479 53.5072 26.7812 52.9705 27.2923C52.3172 27.9096 51.2996 28.5948 49.512 28.5948C46.7573 28.5948 44.6003 26.4775 44.6003 23.854C44.6003 21.2306 46.7573 19.1133 49.512 19.1133C51.0014 19.1133 52.0851 19.6676 52.8849 20.3861L54.2059 19.1281C53.0872 18.1108 51.599 17.3293 49.512 17.3293C45.7346 17.3293 42.5599 20.2565 42.5599 23.854C42.5599 27.4516 45.7346 30.3788 49.512 30.3788C51.5536 30.3788 53.0872 29.7417 54.2927 28.5467C55.5281 27.3701 55.9131 25.7158 55.9131 24.38C55.9131 23.9651 55.8768 23.5837 55.812 23.2651H49.512ZM96.4975 24.6491C96.1332 23.7096 95.0094 21.9775 92.7201 21.9775C90.4516 21.9775 88.5629 23.68 88.5629 26.1787C88.5629 28.5318 90.4321 30.3788 92.9379 30.3788C94.964 30.3788 96.1332 29.2022 96.6142 28.517L95.1105 27.5627C94.6088 28.2615 93.9257 28.7244 92.9379 28.7244C91.9566 28.7244 91.2527 28.296 90.8016 27.4516L96.701 25.1269L96.4975 24.6491ZM90.4827 26.0479C90.4321 24.4281 91.8036 23.5985 92.7862 23.5985C93.5562 23.5985 94.2095 23.9651 94.4273 24.4898L90.4827 26.0479ZM85.6877 30.1232H87.627V17.7775H85.6877V30.1232ZM82.5118 22.9133H82.447C82.0114 22.4219 81.1805 21.9775 80.1279 21.9775C77.919 21.9775 75.8994 23.8244 75.8994 26.1923C75.8994 28.5467 77.919 30.3788 80.1279 30.3788C81.1805 30.3788 82.0114 29.9306 82.447 29.4244H82.5118V30.0269C82.5118 31.6331 81.6108 32.4961 80.1577 32.4961C78.9729 32.4961 78.2379 31.6812 77.9346 30.9961L76.2481 31.6664C76.7342 32.78 78.0214 34.1504 80.1577 34.1504C82.4314 34.1504 84.3499 32.8763 84.3499 29.7763V22.233H82.5118V22.9133ZM80.2938 28.7244C78.9573 28.7244 77.8386 27.659 77.8386 26.1923C77.8386 24.7121 78.9573 23.6318 80.2938 23.6318C81.6108 23.6318 82.6492 24.7121 82.6492 26.1923C82.6492 27.659 81.6108 28.7244 80.2938 28.7244ZM105.577 17.7775H100.939V30.1232H102.873V25.4454H105.577C107.725 25.4454 109.831 23.9651 109.831 21.6108C109.831 19.2577 107.72 17.7775 105.577 17.7775ZM105.627 23.7281H102.873V19.4948H105.627C107.071 19.4948 107.896 20.6367 107.896 21.6108C107.896 22.5664 107.071 23.7281 105.627 23.7281ZM117.583 21.954C116.186 21.954 114.732 22.5417 114.135 23.8442L115.851 24.5293C116.221 23.8442 116.9 23.6219 117.618 23.6219C118.621 23.6219 119.639 24.196 119.655 25.2096V25.3392C119.305 25.1466 118.555 24.8614 117.634 24.8614C115.785 24.8614 113.902 25.8306 113.902 27.6392C113.902 29.2936 115.416 30.359 117.118 30.359C118.419 30.359 119.137 29.7997 119.588 29.1491H119.655V30.1035H121.522V25.3676C121.522 23.1787 119.806 21.954 117.583 21.954ZM117.35 28.7195C116.717 28.7195 115.836 28.4207 115.836 27.6738C115.836 26.7183 116.935 26.3516 117.886 26.3516C118.738 26.3516 119.137 26.5306 119.655 26.7664C119.503 27.9096 118.47 28.7195 117.35 28.7195ZM128.328 22.2244L126.105 27.5763H126.039L123.74 22.2244H121.655L125.108 29.7035L123.138 33.8652H125.159L130.48 22.2244H128.328ZM110.894 30.1232H112.833V17.7775H110.894V30.1232Z" fill="white"/>
<path d="M10.8215 7.93916C10.5169 8.24287 10.3406 8.71571 10.3406 9.32806V31.1702C10.3406 31.7825 10.5169 32.2554 10.8215 32.5591L10.8967 32.6257L23.7482 20.3911V20.1022L10.8967 7.86756L10.8215 7.93916Z" fill="url(#paint0_linear_5673_1810)"/>
<path d="M28.0272 24.4712L23.7482 20.3909V20.102L28.0324 16.0218L28.1284 16.0748L33.2021 18.8242C34.65 19.6045 34.65 20.8885 33.2021 21.6736L28.1284 24.4181L28.0272 24.4712Z" fill="url(#paint1_linear_5673_1810)"/>
<path d="M28.1284 24.4185L23.7482 20.2468L10.8215 32.5592C11.3025 33.0407 12.0867 33.0988 12.9786 32.6173L28.1284 24.4185Z" fill="url(#paint2_linear_5673_1810)"/>
<path d="M28.1284 16.0751L12.9786 7.87626C12.0867 7.39971 11.3025 7.45774 10.8215 7.93922L23.7482 20.2467L28.1284 16.0751Z" fill="url(#paint3_linear_5673_1810)"/>
<defs>
<linearGradient id="paint0_linear_5673_1810" x1="22.6071" y1="31.3976" x2="6.0515" y2="14.0144" gradientUnits="userSpaceOnUse">
<stop stop-color="#00A0FF"/>
<stop offset="0.0066" stop-color="#00A1FF"/>
<stop offset="0.2601" stop-color="#00BEFF"/>
<stop offset="0.5122" stop-color="#00D2FF"/>
<stop offset="0.7604" stop-color="#00DFFF"/>
<stop offset="1" stop-color="#00E3FF"/>
</linearGradient>
<linearGradient id="paint1_linear_5673_1810" x1="35.0875" y1="20.2451" x2="9.99447" y2="20.2451" gradientUnits="userSpaceOnUse">
<stop stop-color="#FFE000"/>
<stop offset="0.4087" stop-color="#FFBD00"/>
<stop offset="0.7754" stop-color="#FFA500"/>
<stop offset="1" stop-color="#FF9C00"/>
</linearGradient>
<linearGradient id="paint2_linear_5673_1810" x1="25.7466" y1="17.9791" x2="3.29582" y2="-5.59408" gradientUnits="userSpaceOnUse">
<stop stop-color="#FF3A44"/>
<stop offset="1" stop-color="#C31162"/>
</linearGradient>
<linearGradient id="paint3_linear_5673_1810" x1="7.56762" y1="39.8259" x2="17.5929" y2="29.2995" gradientUnits="userSpaceOnUse">
<stop stop-color="#32A071"/>
<stop offset="0.0685" stop-color="#2DA771"/>
<stop offset="0.4762" stop-color="#15CF74"/>
<stop offset="0.8009" stop-color="#06E775"/>
<stop offset="1" stop-color="#00F076"/>
</linearGradient>
</defs>
</svg>
