<svg width="25" height="24" viewBox="0 0 25 24" fill="none" xmlns="http://www.w3.org/2000/svg">
<path d="M5.19775 12.6626L11.4814 12.6875C11.5977 12.6875 11.6558 12.7373 11.6558 12.8618L11.6724 19.1289C11.6724 19.9175 12.021 20.5649 12.6768 20.5649C13.3076 20.5649 13.6479 19.9756 13.9468 19.3198L20.3052 5.62354C20.4629 5.2998 20.5376 5.00928 20.5376 4.76855C20.5376 4.2207 20.1309 3.80566 19.5747 3.80566C19.3257 3.80566 19.0352 3.87207 18.7114 4.02979L5.01514 10.3799C4.38428 10.6704 3.77002 11.019 3.77002 11.6582C3.77002 12.2974 4.38428 12.6626 5.19775 12.6626ZM5.78711 11.4424C5.7207 11.4424 5.7124 11.3594 5.78711 11.3262L18.9355 5.2915C19.0352 5.2417 19.1016 5.2915 19.0435 5.40771L13.0088 18.5562C12.9756 18.6309 12.8926 18.606 12.8926 18.5396L12.9424 11.9736C12.9424 11.6333 12.71 11.3926 12.353 11.3926L5.78711 11.4424Z" fill="white"/>
</svg>
