<svg width="24" height="24" viewBox="0 0 24 24" fill="none" xmlns="http://www.w3.org/2000/svg">
<path d="M4.69775 12.6626L10.9814 12.6875C11.0977 12.6875 11.1558 12.7373 11.1558 12.8618L11.1724 19.1289C11.1724 19.9175 11.521 20.5649 12.1768 20.5649C12.8076 20.5649 13.1479 19.9756 13.4468 19.3198L19.8052 5.62354C19.9629 5.2998 20.0376 5.00928 20.0376 4.76855C20.0376 4.2207 19.6309 3.80566 19.0747 3.80566C18.8257 3.80566 18.5352 3.87207 18.2114 4.02979L4.51514 10.3799C3.88428 10.6704 3.27002 11.019 3.27002 11.6582C3.27002 12.2974 3.88428 12.6626 4.69775 12.6626ZM5.28711 11.4424C5.2207 11.4424 5.2124 11.3594 5.28711 11.3262L18.4355 5.2915C18.5352 5.2417 18.6016 5.2915 18.5435 5.40771L12.5088 18.5562C12.4756 18.6309 12.3926 18.606 12.3926 18.5396L12.4424 11.9736C12.4424 11.6333 12.21 11.3926 11.853 11.3926L5.28711 11.4424Z" fill="#1A1A1A"/>
</svg>
