<svg width="90" height="28" viewBox="0 0 90 28" fill="none" xmlns="http://www.w3.org/2000/svg">
<path d="M38.0939 12.1661C39.1233 12.7227 40.2743 13.0011 41.5473 13.0011C42.6302 13.0011 43.6117 12.8093 44.4921 12.4265C45.1379 12.1453 45.7074 11.7709 46.1994 11.3029C46.3445 11.1649 46.417 10.9916 46.417 10.7908C46.4157 10.59 46.34 10.4175 46.1936 10.2813L45.3456 9.49373C45.0808 9.24792 44.6769 9.24565 44.4094 9.4884C43.6494 10.1782 42.7486 10.523 41.7078 10.523C40.9346 10.523 40.2447 10.3524 39.6378 10.011C39.0311 9.66994 38.558 9.19423 38.2191 8.58363C37.8799 7.97308 37.7104 7.27868 37.7104 6.50056C37.7104 5.72239 37.8799 5.02809 38.2191 4.41754C38.558 3.80694 39.0311 3.33114 39.6378 2.98987C40.2447 2.64879 40.9346 2.47817 41.7078 2.47817C42.749 2.47817 43.6494 2.81889 44.4094 3.50042C44.6771 3.74051 45.0788 3.73708 45.3425 3.49217L46.1892 2.70569C46.3366 2.56881 46.4126 2.3953 46.4127 2.19343C46.4134 1.99175 46.3382 1.81792 46.1913 1.68041C45.702 1.22278 45.1387 0.854154 44.5009 0.574725C43.6264 0.191637 42.6478 0 41.5651 0C40.2803 0 39.1233 0.278384 38.0939 0.835033C37.0648 1.39177 36.2559 2.16381 35.6668 3.15159C35.0781 4.13915 34.7837 5.25548 34.7837 6.50056C34.7837 7.74546 35.0781 8.86189 35.6668 9.84958C36.2559 10.8372 37.0648 11.6094 38.0939 12.1661Z" fill="#1A1A1A"/>
<path d="M54.3077 10.1638L59.0752 1.24548C59.1942 1.02279 59.1888 0.773108 59.0599 0.555965C58.931 0.338867 58.7149 0.215553 58.4638 0.215553H57.2135C56.946 0.215553 56.7168 0.356671 56.5951 0.596484L53.3618 6.96745L50.2335 0.604599C50.1136 0.360369 49.8818 0.215553 49.6112 0.215553H48.1162C47.8652 0.215553 47.6491 0.338727 47.5204 0.555689C47.3911 0.772833 47.3853 1.02238 47.5043 1.24507L51.8805 9.44548L51.7733 9.58913C51.5356 9.96027 51.2738 10.2327 50.9881 10.4062C50.7027 10.5799 50.3812 10.6666 50.0246 10.6666C49.8356 10.6666 49.6198 10.6417 49.3777 10.5915C49.0279 10.5194 48.6838 10.7226 48.5761 11.065L48.2837 11.993C48.2247 12.1805 48.2417 12.3634 48.3346 12.5363C48.4275 12.7094 48.5702 12.8241 48.7581 12.8771C49.2207 13.0075 49.6725 13.0729 50.1136 13.0729C50.9583 13.0729 51.7408 12.8273 52.4605 12.3366C53.1802 11.8458 53.7959 11.1215 54.3077 10.1638Z" fill="#1A1A1A"/>
<path d="M75.3481 12.0867V0.914504C75.3481 0.53074 75.0362 0.215553 74.6536 0.215553H73.1694C72.7867 0.215553 72.4746 0.529523 72.4746 0.914504V10.4151H69.6195V0.914504C69.6195 0.529794 69.3077 0.215553 68.9253 0.215553H67.4408C67.0584 0.215553 66.7464 0.529523 66.7464 0.914504V10.4151H63.8732V0.914504C63.8732 0.529523 63.5613 0.215553 63.1786 0.215553H61.6944C61.312 0.215553 60.9999 0.529523 60.9999 0.914504V12.0867C60.9999 12.4715 61.3126 12.7855 61.6944 12.7855H74.6536C75.0355 12.7855 75.3481 12.471 75.3481 12.0867Z" fill="#1A1A1A"/>
<path d="M80.6322 0.215553H79.1478C78.7654 0.215553 78.4532 0.529523 78.4532 0.914504V12.0867C78.4532 12.4715 78.766 12.7855 79.1478 12.7855H80.8321C81.0597 12.7855 81.2574 12.6849 81.392 12.5002L87.1446 4.61513V12.0867C87.1446 12.4715 87.457 12.7855 87.8391 12.7855H89.3055C89.6874 12.7855 90 12.471 90 12.0867V0.914504C90 0.5302 89.6881 0.215553 89.3055 0.215553H87.6395C87.4109 0.215553 87.2142 0.315874 87.0791 0.501334L81.3267 8.404V0.914504C81.3267 0.5302 81.0148 0.215553 80.6322 0.215553Z" fill="#1A1A1A"/>
<path fill-rule="evenodd" clip-rule="evenodd" d="M44.708 15.2147H35.4784C35.0958 15.2147 34.7838 15.5286 34.7838 15.9135V27.0857C34.7838 27.4706 35.0959 27.7846 35.4784 27.7846H41.2444C42.8506 27.7846 44.094 27.4374 44.9742 26.7431C45.8549 26.0488 46.2951 25.0731 46.2951 23.8161C46.2951 22.6188 45.8992 21.703 45.1082 21.0686C44.3169 20.4341 43.1659 20.1169 41.655 20.1169H37.6572V17.5311H44.708C45.0902 17.5311 45.4024 17.217 45.4024 16.8323V15.9135C45.4024 15.5288 45.0905 15.2147 44.708 15.2147ZM42.7793 25.1898C42.3867 25.483 41.8212 25.6297 41.0838 25.6297H37.6572V22.2538H41.0838C42.6063 22.2538 43.3681 22.8043 43.3681 23.9059C43.3681 24.4685 43.1717 24.8965 42.7793 25.1898Z" fill="#1A1A1A"/>
<path fill-rule="evenodd" clip-rule="evenodd" d="M50.944 27.1561C51.9849 27.7188 53.1538 28 54.4507 28C55.7476 28 56.9136 27.7188 57.9487 27.1561C58.9838 26.5933 59.7986 25.8183 60.3935 24.8306C60.9884 23.8431 61.2858 22.7326 61.2858 21.4996C61.2858 20.2665 60.9884 19.1562 60.3935 18.1685C59.7986 17.181 58.9838 16.4056 57.9487 15.843C56.9136 15.2804 55.7476 14.999 54.4507 14.999C53.1538 14.999 51.9849 15.2804 50.944 15.843C49.9029 16.4056 49.0879 17.181 48.4991 18.1685C47.91 19.1562 47.6155 20.2665 47.6155 21.4996C47.6155 22.7326 47.91 23.8431 48.4991 24.8306C49.0879 25.8183 49.9029 26.5933 50.944 27.1561ZM56.4496 25.0101C55.8548 25.3513 55.1884 25.522 54.4507 25.522C53.7129 25.522 53.0468 25.3513 52.4518 25.0101C51.857 24.669 51.3902 24.1932 51.0511 23.5826C50.7118 22.972 50.5423 22.2776 50.5423 21.4996C50.5423 20.7213 50.7118 20.0271 51.0511 19.4165C51.3902 18.8059 51.857 18.3301 52.4518 17.9888C53.0468 17.6478 53.7129 17.4771 54.4507 17.4771C55.1884 17.4771 55.8548 17.6478 56.4496 17.9888C57.0445 18.3301 57.5114 18.8059 57.8505 19.4165C58.1895 20.0271 58.3591 20.7213 58.3591 21.4996C58.3591 22.2776 58.1895 22.972 57.8505 23.5826C57.5114 24.1932 57.0445 24.669 56.4496 25.0101Z" fill="#1A1A1A"/>
<path d="M66.3544 22.7207H68.8885L71.9314 27.4646C72.0631 27.6701 72.2722 27.7846 72.5151 27.7846H74.1385C74.4 27.7846 74.6245 27.65 74.7491 27.4187C74.8738 27.1872 74.8633 26.9245 74.7204 26.7042L71.2087 21.2839L74.5611 16.3054C74.7088 16.0859 74.723 15.8204 74.5996 15.586C74.4758 15.3518 74.2498 15.2147 73.9859 15.2147H72.6206C72.3784 15.2147 72.1701 15.3282 72.0383 15.5325L68.96 20.2964H66.3544V15.9135C66.3544 15.5286 66.0422 15.2147 65.6597 15.2147H64.1756C63.7931 15.2147 63.481 15.5286 63.481 15.9135V27.0857C63.481 27.4706 63.7931 27.7846 64.1756 27.7846H65.6597C66.0422 27.7846 66.3544 27.4706 66.3544 27.0857V22.7207Z" fill="#1A1A1A"/>
<path d="M79.1769 27.1652C80.206 27.7218 81.3572 28 82.6305 28C83.713 28 84.6947 27.8084 85.5751 27.4254C86.2209 27.1445 86.7902 26.7698 87.2825 26.3018C87.4272 26.164 87.5 25.9906 87.5 25.7899C87.4987 25.5889 87.423 25.4165 87.2763 25.2804L86.4284 24.4927C86.1637 24.2471 85.7597 24.2448 85.4921 24.4874C84.7324 25.177 83.8318 25.522 82.7909 25.522C82.0176 25.522 81.3274 25.3512 80.7206 25.0101C80.1141 24.669 79.641 24.1931 79.3019 23.5826C78.963 22.972 78.7933 22.2776 78.7933 21.4996C78.7933 20.7213 78.963 20.0271 79.3019 19.4165C79.641 18.8062 80.1141 18.33 80.7206 17.9888C81.3273 17.6478 82.0176 17.4771 82.7909 17.4771C83.8318 17.4771 84.7324 17.8181 85.4921 18.4994C85.7598 18.7396 86.1621 18.736 86.4256 18.4913L87.2723 17.7046C87.4194 17.568 87.4953 17.3942 87.4957 17.1925C87.496 16.9908 87.421 16.8167 87.2742 16.6795C86.7851 16.2219 86.2216 15.853 85.5839 15.5737C84.7094 15.1906 83.7309 14.999 82.6481 14.999C81.3632 14.999 80.206 15.2775 79.1769 15.8341C78.1479 16.3906 77.3389 17.163 76.7498 18.1506C76.1611 19.1381 75.8664 20.2544 75.8664 21.4996C75.8664 22.7445 76.161 23.8609 76.7498 24.8485C77.3389 25.8362 78.1479 26.6085 79.1769 27.1652Z" fill="#1A1A1A"/>
<path fill-rule="evenodd" clip-rule="evenodd" d="M27.8265 19.3067C27.8418 17.4083 27.2277 15.5272 26.1089 13.9999C27.2277 12.4727 27.8416 10.5916 27.8265 8.69317C27.8265 3.34305 24.2057 0 18.6963 0H3.93507C1.67563 0 -0.00102972 1.82511 4.74478e-07 4.05355C4.74478e-07 10.6844 4.74478e-07 17.3154 4.74478e-07 23.9463C4.74478e-07 26.1748 1.67554 27.9999 3.93507 27.9999H18.6963C24.2057 27.9999 27.8265 24.6568 27.8265 19.3067Z" fill="#1A1A1A"/>
<path fill-rule="evenodd" clip-rule="evenodd" d="M24.7714 14.8668C25.6908 16.0806 26.2398 17.6157 26.2398 19.2853C26.2398 22.9068 23.6568 25.8966 20.3147 26.3443C19.8275 23.7788 18.619 21.4853 16.9198 19.7059C14.6749 17.355 11.5734 15.9006 8.14769 15.9006C5.71661 15.9006 3.44895 16.6332 1.53467 17.8987V14.6507C2.60159 13.5192 4.1149 12.3863 5.46329 11.6357C7.73688 10.3699 10.3316 9.65253 13.0862 9.65253C16.9917 9.65253 22.3254 11.6339 24.7714 14.8668Z" fill="#FECB24"/>
<path fill-rule="evenodd" clip-rule="evenodd" d="M18.7076 26.4024H3.93497C2.61489 26.4024 1.53467 25.2712 1.53467 23.8887V19.8214C3.49526 18.4073 5.71244 17.4971 8.14769 17.4971C11.0571 17.4971 13.7695 18.7114 15.7755 20.8121C17.2551 22.3615 18.2636 24.305 18.7076 26.4024Z" fill="#FECB24"/>
<path fill-rule="evenodd" clip-rule="evenodd" d="M26.2398 8.66126C26.2398 10.1784 25.7862 11.5846 25.0137 12.7395C22.0128 9.77417 17.0397 8.05595 13.0862 8.05595C8.78866 8.05595 4.71071 9.63846 1.53467 12.4727V11.2772C2.52213 9.9201 3.8339 8.55149 5.08832 7.42918C8.68302 4.21363 13.1519 2.00664 18.1334 1.60881C19.2189 1.52219 19.9042 1.49799 20.9711 1.73081C21.3529 1.81415 21.7119 1.93543 22.0497 2.08641C22.8258 2.43335 23.4927 2.88101 24.0715 3.44938C25.4177 4.77116 26.2398 6.53882 26.2398 8.66126Z" fill="#FECB24"/>
<path fill-rule="evenodd" clip-rule="evenodd" d="M3.93497 1.54425H11.5211C8.11785 2.9007 5.03716 5.05963 2.43727 7.78222C2.12767 8.1064 1.82671 8.43892 1.53467 8.77911V4.05793C1.53467 2.67539 2.61471 1.54425 3.93497 1.54425Z" fill="#FECB24"/>
</svg>
