<svg width="94" height="17" viewBox="0 0 94 17" fill="none" xmlns="http://www.w3.org/2000/svg">
<path fill-rule="evenodd" clip-rule="evenodd" d="M10.3226 13.5201H4.38087C3.84993 13.5201 3.41541 13.0623 3.41541 12.5026V10.8563C4.204 10.284 5.0958 9.91557 6.07528 9.91557C7.24547 9.91557 8.33642 10.407 9.14331 11.2574C9.73842 11.8845 10.144 12.6712 10.3226 13.5201ZM4.38087 3.45837H7.43216C6.06331 4.0074 4.82418 4.88131 3.77844 5.98328C3.65395 6.11458 3.53286 6.24915 3.41541 6.3868V4.47586C3.41541 3.9163 3.84984 3.45837 4.38087 3.45837ZM13.3521 6.33911C13.3521 6.95322 13.1697 7.52239 12.859 7.98983C11.652 6.78958 9.65171 6.09412 8.06159 6.09412C6.33308 6.09412 4.69283 6.73466 3.41541 7.88189V7.39799C3.81258 6.84868 4.3403 6.29468 4.8448 5.84043C6.29059 4.53891 8.08803 3.64556 10.0916 3.48455C10.5282 3.4495 10.8039 3.43966 11.233 3.53394C11.3866 3.56765 11.531 3.61672 11.6668 3.67784C11.979 3.81825 12.2472 3.9995 12.48 4.22954C13.0215 4.76459 13.3521 5.48006 13.3521 6.33911ZM12.7616 8.85089C13.1313 9.34225 13.3521 9.96359 13.3521 10.6394C13.3521 12.1053 12.3132 13.3154 10.969 13.4966C10.773 12.4582 10.287 11.5299 9.60348 10.8097C8.70062 9.85807 7.45307 9.26932 6.07528 9.26932C5.09743 9.26932 4.18537 9.56586 3.41541 10.0781V8.76343C3.84451 8.3055 4.45322 7.84689 4.99555 7.54308C5.90999 7.0307 6.95367 6.74037 8.06159 6.74037C9.63246 6.74037 11.7777 7.54239 12.7616 8.85089Z" fill="white" fill-opacity="0.6"/>
<path d="M18.3272 13.2292C19.0379 13.4382 19.7738 13.5426 20.535 13.5426C21.4155 13.5426 22.163 13.408 22.7774 13.1387C23.3919 12.8693 23.8527 12.5049 24.1599 12.0452C24.4671 11.5855 24.6208 11.0771 24.6208 10.5198C24.6208 9.86973 24.4534 9.35437 24.1187 8.97362C23.7839 8.59292 23.3827 8.31426 22.9149 8.13779C22.4472 7.96142 21.8465 7.78497 21.1129 7.6085C20.4067 7.45066 19.8817 7.29049 19.5378 7.12796C19.1938 6.96538 19.0219 6.71703 19.0219 6.38272C19.0219 6.04838 19.1708 5.77906 19.4689 5.57473C19.767 5.37044 20.2278 5.26826 20.8515 5.26826C21.5394 5.26826 22.2274 5.42094 22.9152 5.72636C23.0839 5.80123 23.2558 5.80371 23.4264 5.73353C23.597 5.66335 23.7186 5.54023 23.788 5.36754L23.9853 4.87614C24.1185 4.54428 23.9682 4.16504 23.6455 4.01838C23.346 3.88229 23.0199 3.76953 22.6673 3.68026C22.0804 3.53176 21.4797 3.4574 20.8652 3.4574C19.9848 3.4574 19.2397 3.59209 18.6297 3.86141C18.0199 4.13073 17.5636 4.4952 17.261 4.95487C16.9583 5.41458 16.807 5.9277 16.807 6.49416C16.807 7.14414 16.9745 7.6642 17.3092 8.05428C17.644 8.44433 18.0451 8.72753 18.5129 8.90399C18.9806 9.08046 19.5813 9.25683 20.3149 9.4333C20.7919 9.54478 21.1702 9.64697 21.4499 9.73982C21.7296 9.83268 21.9589 9.95574 22.1378 10.1089C22.3165 10.2621 22.406 10.4548 22.406 10.6871C22.406 11.0028 22.2546 11.2558 21.952 11.4462C21.6494 11.6366 21.1816 11.7317 20.5488 11.7317C19.9802 11.7317 19.4116 11.6389 18.843 11.4532C18.5265 11.3499 18.2341 11.2276 17.9659 11.0868C17.7996 10.9995 17.6245 10.9868 17.4476 11.049C17.2707 11.1113 17.1412 11.2313 17.0642 11.4042L16.8471 11.8917C16.7049 12.2112 16.8305 12.5859 17.1355 12.7517C17.4754 12.9365 17.8727 13.0956 18.3272 13.2292Z" fill="white" fill-opacity="0.6"/>
<path d="M37.944 13.2292C38.6547 13.4382 39.3907 13.5426 40.1519 13.5426C41.0324 13.5426 41.7798 13.408 42.3942 13.1387C43.0088 12.8693 43.4696 12.5049 43.7768 12.0452C44.084 11.5855 44.2376 11.0771 44.2376 10.5198C44.2376 9.86973 44.0702 9.35437 43.7355 8.97362C43.4007 8.59292 42.9995 8.31426 42.5317 8.13779C42.064 7.96142 41.4634 7.78497 40.7297 7.6085C40.0236 7.45066 39.4985 7.29049 39.1546 7.12796C38.8107 6.96538 38.6387 6.71703 38.6387 6.38272C38.6387 6.04838 38.7877 5.77906 39.0858 5.57473C39.3838 5.37044 39.8447 5.26826 40.4683 5.26826C41.1563 5.26826 41.8442 5.42094 42.5321 5.72636C42.7007 5.80123 42.8727 5.80371 43.0433 5.73353C43.2139 5.66335 43.3355 5.54023 43.4048 5.36754L43.6021 4.87614C43.7353 4.54428 43.585 4.16504 43.2623 4.01838C42.9628 3.88229 42.6367 3.76953 42.2841 3.68026C41.6973 3.53176 41.0966 3.4574 40.4821 3.4574C39.6017 3.4574 38.8565 3.59209 38.2466 3.86141C37.6367 4.13073 37.1805 4.4952 36.8779 4.95487C36.5752 5.41458 36.4239 5.9277 36.4239 6.49416C36.4239 7.14414 36.5913 7.6642 36.926 8.05428C37.2608 8.44433 37.662 8.72753 38.1297 8.90399C38.5974 9.08046 39.1982 9.25683 39.9317 9.4333C40.4087 9.54478 40.787 9.64697 41.0667 9.73982C41.3464 9.83268 41.5757 9.95574 41.7546 10.1089C41.9334 10.2621 42.0228 10.4548 42.0228 10.6871C42.0228 11.0028 41.8715 11.2558 41.5688 11.4462C41.2662 11.6366 40.7985 11.7317 40.1656 11.7317C39.5971 11.7317 39.0284 11.6389 38.4599 11.4532C38.1434 11.3499 37.8509 11.2276 37.5827 11.0868C37.4164 10.9995 37.2413 10.9868 37.0644 11.049C36.8875 11.1113 36.758 11.2313 36.681 11.4042L36.464 11.8917C36.3217 12.2112 36.4474 12.5859 36.7523 12.7517C37.0922 12.9365 37.4895 13.0956 37.944 13.2292Z" fill="white" fill-opacity="0.6"/>
<path fill-rule="evenodd" clip-rule="evenodd" d="M73.881 12.888C74.6835 13.3244 75.5845 13.5426 76.5841 13.5426C77.5838 13.5426 78.4825 13.3244 79.2804 12.888C80.0783 12.4515 80.7065 11.8502 81.1651 11.0841C81.6236 10.318 81.8529 9.45662 81.8529 8.50002C81.8529 7.54352 81.6236 6.68217 81.1651 5.91607C80.7065 5.14988 80.0783 4.54859 79.2804 4.11215C78.4825 3.6757 77.5838 3.4574 76.5841 3.4574C75.5845 3.4574 74.6835 3.6757 73.881 4.11215C73.0786 4.54859 72.4503 5.14988 71.9963 5.91607C71.5423 6.68217 71.3155 7.54352 71.3155 8.50002C71.3155 9.45662 71.5423 10.318 71.9963 11.0841C72.4503 11.8502 73.0786 12.4515 73.881 12.888ZM78.1249 11.2233C77.6663 11.488 77.1527 11.6203 76.5841 11.6203C76.0155 11.6203 75.5019 11.488 75.0434 11.2233C74.5848 10.9587 74.2249 10.5895 73.9635 10.1159C73.7022 9.64231 73.5716 9.10369 73.5716 8.50002C73.5716 7.89645 73.7022 7.3578 73.9635 6.8842C74.2249 6.41054 74.5848 6.04143 75.0434 5.7768C75.5019 5.51213 76.0155 5.37974 76.5841 5.37974C77.1527 5.37974 77.6663 5.51213 78.1249 5.7768C78.5834 6.04143 78.9434 6.41054 79.2048 6.8842C79.4662 7.3578 79.5968 7.89645 79.5968 8.50002C79.5968 9.10369 79.4662 9.64231 79.2048 10.1159C78.9434 10.5895 78.5834 10.9587 78.1249 11.2233Z" fill="white" fill-opacity="0.6"/>
<path d="M86.9291 9.99053L89.0579 13.0899C89.1847 13.2744 89.3755 13.3755 89.5975 13.3755H90.5423C90.7953 13.3755 91.0121 13.2412 91.1274 13.0132C91.2426 12.7852 91.2234 12.5285 91.0754 12.3208L88.236 8.33287L90.8405 4.6796C90.9886 4.47181 91.0079 4.21515 90.8927 3.98708C90.7774 3.75892 90.5606 3.62458 90.3076 3.62458H89.5285C89.3066 3.62458 89.1158 3.72548 88.989 3.9099L87.0117 6.78662L84.9933 3.90503C84.8662 3.72351 84.677 3.62458 84.4572 3.62458H83.5435C83.291 3.62458 83.0745 3.75841 82.9591 3.98579C82.8436 4.21312 82.8621 4.46923 83.009 4.6772L85.6497 8.41647L82.8462 12.3185C82.6971 12.5261 82.677 12.7831 82.792 13.0119C82.907 13.2407 83.1241 13.3755 83.3776 13.3755H84.2986C84.5224 13.3755 84.715 13.2726 84.8412 13.0854L86.9291 9.99053Z" fill="white" fill-opacity="0.6"/>
<path fill-rule="evenodd" clip-rule="evenodd" d="M68.4678 8.30503C69.018 8.4815 69.449 8.77626 69.7609 9.18952C70.0727 9.60284 70.2286 10.1112 70.2286 10.7149C70.2286 11.5693 69.9008 12.2262 69.245 12.6859C68.5893 13.1456 67.6332 13.3755 66.3768 13.3755H62.0541C61.6922 13.3755 61.3969 13.0766 61.3969 12.71V4.29011C61.3969 3.92352 61.6922 3.62458 62.0541 3.62458H66.1016C67.2755 3.62458 68.1765 3.85205 68.8048 4.30708C69.4331 4.7622 69.7471 5.3797 69.7471 6.15983C69.7471 6.63344 69.6348 7.05595 69.4101 7.42737C69.1855 7.79892 68.8712 8.09136 68.4678 8.30503ZM66.2117 11.6761C66.7987 11.6761 67.2412 11.5785 67.5392 11.3835C67.8372 11.1885 67.9862 10.8867 67.9862 10.4781C67.9862 9.67011 67.3948 9.26618 66.2117 9.26618H63.6117V11.6761H66.2117ZM63.6117 5.324V7.62245H65.8265C66.3768 7.62245 66.794 7.5249 67.0784 7.32995C67.3626 7.13491 67.5048 6.84697 67.5048 6.46622C67.5048 6.08556 67.3626 5.79991 67.0784 5.60956C66.794 5.41916 66.3768 5.324 65.8265 5.324H63.6117Z" fill="white" fill-opacity="0.6"/>
<path d="M58.4512 3.62458H57.5371C57.1752 3.62458 56.8799 3.92351 56.8799 4.29005V12.71C56.8799 13.0765 57.1752 13.3754 57.5371 13.3754H58.4512C58.8132 13.3754 59.1084 13.0765 59.1084 12.71V4.29005C59.1084 3.92351 58.8132 3.62458 58.4512 3.62458Z" fill="white" fill-opacity="0.6"/>
<path d="M54.5963 4.29005V12.71C54.5963 13.0765 54.3011 13.3754 53.9391 13.3754H53.0249C52.6629 13.3754 52.3677 13.0765 52.3677 12.71V9.37762H47.9931V12.71C47.9931 13.0765 47.6979 13.3754 47.3359 13.3754H46.4218C46.0598 13.3754 45.7646 13.0765 45.7646 12.71V4.29005C45.7646 3.92351 46.0598 3.62458 46.4218 3.62458H47.3359C47.6979 3.62458 47.9931 3.92351 47.9931 4.29005V7.46922H52.3677V4.29005C52.3677 3.92351 52.6629 3.62458 53.0249 3.62458H53.9391C54.3011 3.62458 54.5963 3.92351 54.5963 4.29005Z" fill="white" fill-opacity="0.6"/>
<path d="M30.4261 13.5426C29.0504 13.5426 27.9796 13.1572 27.2139 12.3865C26.4481 11.6157 26.0652 10.5152 26.0652 9.08503V4.29005C26.0652 3.92351 26.3604 3.62458 26.7225 3.62458H27.6366C27.9986 3.62458 28.2939 3.92351 28.2939 4.29005V9.00151C28.2939 10.7474 29.0092 11.6202 30.4398 11.6202C31.1368 11.6202 31.6688 11.409 32.0356 10.9865C32.4024 10.5639 32.5859 9.90223 32.5859 9.00151V4.29005C32.5859 3.92351 32.8811 3.62458 33.2431 3.62458H34.1296C34.4916 3.62458 34.7868 3.92351 34.7868 4.29005V9.08503C34.7868 10.5152 34.404 11.6157 33.6382 12.3865C32.8724 13.1572 31.8017 13.5426 30.4261 13.5426Z" fill="white" fill-opacity="0.6"/>
</svg>
