<svg width="56" height="56" viewBox="0 0 56 56" fill="none" xmlns="http://www.w3.org/2000/svg">
<g filter="url(#filter0_d_14_3428)">
<path d="M10 26C10 16.0589 18.0589 8 28 8C37.9411 8 46 16.0589 46 26C46 35.9411 37.9411 44 28 44C18.0589 44 10 35.9411 10 26Z" fill="#F68634"/>
<path d="M29.9471 30.0802L32.6371 32.6771C33.1881 33.208 33.1881 34.0701 32.6371 34.6015C32.0866 35.1328 31.1943 35.1328 30.6444 34.6015L27.9996 32.0496L25.3571 34.6015C25.0816 34.8669 24.7205 34.9997 24.3595 34.9997C23.999 34.9997 23.6385 34.8669 23.363 34.6015C22.8125 34.0701 22.8125 33.2085 23.3624 32.6771L26.0527 30.0802C25.0732 29.8648 24.1286 29.4902 23.2585 28.9633C22.6 28.5625 22.4022 27.7229 22.8171 27.0867C23.2308 26.4497 24.1009 26.258 24.7605 26.6587C26.7305 27.8549 29.2682 27.8552 31.2392 26.6587C31.8989 26.258 32.7686 26.4497 33.1832 27.0867C33.5981 27.7223 33.3998 28.5625 32.7413 28.9633C31.8712 29.4908 30.9266 29.8648 29.9471 30.0802Z" fill="white"/>
<path fill-rule="evenodd" clip-rule="evenodd" d="M23.1758 21.6452C23.1758 24.206 25.334 26.289 27.9877 26.289C30.642 26.289 32.7997 24.206 32.7997 21.6452C32.7997 19.0836 30.642 17 27.9877 17C25.334 17 23.1758 19.0836 23.1758 21.6452ZM29.9801 21.6452C29.9801 20.5846 29.0864 19.7222 27.9877 19.7222C26.8899 19.7222 25.9953 20.5846 25.9953 21.6452C25.9953 22.7049 26.8899 23.5679 27.9877 23.5679C29.0864 23.5679 29.9801 22.7049 29.9801 21.6452Z" fill="white"/>
</g>
<defs>
<filter id="filter0_d_14_3428" x="0" y="0" width="56" height="56" filterUnits="userSpaceOnUse" color-interpolation-filters="sRGB">
<feFlood flood-opacity="0" result="BackgroundImageFix"/>
<feColorMatrix in="SourceAlpha" type="matrix" values="0 0 0 0 0 0 0 0 0 0 0 0 0 0 0 0 0 0 127 0" result="hardAlpha"/>
<feOffset dy="2"/>
<feGaussianBlur stdDeviation="5"/>
<feColorMatrix type="matrix" values="0 0 0 0 0.0784314 0 0 0 0 0.0784314 0 0 0 0 0.0784314 0 0 0 0.25 0"/>
<feBlend mode="normal" in2="BackgroundImageFix" result="effect1_dropShadow_14_3428"/>
<feBlend mode="normal" in="SourceGraphic" in2="effect1_dropShadow_14_3428" result="shape"/>
</filter>
</defs>
</svg>
