<svg width="24" height="24" viewBox="0 0 24 24" fill="none" xmlns="http://www.w3.org/2000/svg">
<path d="M11.9229 11.8125C14.0146 11.8125 15.7197 9.94922 15.7197 7.68164C15.7197 5.43164 14.0234 3.66504 11.9229 3.66504C9.83984 3.66504 8.12598 5.4668 8.12598 7.69922C8.13477 9.95801 9.83105 11.8125 11.9229 11.8125ZM11.9229 10.4854C10.6396 10.4854 9.54102 9.25488 9.54102 7.69922C9.54102 6.16992 10.6221 4.99219 11.9229 4.99219C13.2324 4.99219 14.3047 6.15234 14.3047 7.68164C14.3047 9.2373 13.2148 10.4854 11.9229 10.4854ZM6.39453 19.9424H17.4424C18.9014 19.9424 19.5957 19.5029 19.5957 18.5361C19.5957 16.2334 16.6865 12.9023 11.9229 12.9023C7.15039 12.9023 4.24121 16.2334 4.24121 18.5361C4.24121 19.5029 4.93555 19.9424 6.39453 19.9424ZM5.98145 18.6152C5.75293 18.6152 5.65625 18.5537 5.65625 18.3691C5.65625 16.9277 7.88867 14.2295 11.9229 14.2295C15.9482 14.2295 18.1807 16.9277 18.1807 18.3691C18.1807 18.5537 18.0928 18.6152 17.8643 18.6152H5.98145Z" fill="#1A1A1A"/>
</svg>
