<svg width="24" height="24" viewBox="0 0 24 24" fill="none" xmlns="http://www.w3.org/2000/svg">
<path d="M16.8008 20.2763C18.3389 20.2763 19.3496 19.8633 20.2373 18.8613C20.3076 18.791 20.3779 18.7119 20.4395 18.6416C20.9668 18.0527 21.2129 17.4726 21.2129 16.9189C21.2129 16.2861 20.8438 15.6972 20.0615 15.1523L17.5039 13.3769C16.7129 12.832 15.79 12.7705 15.0518 13.5L14.375 14.1767C14.1729 14.3789 13.9971 14.3877 13.8037 14.2646C13.3291 13.9658 12.3711 13.1308 11.7207 12.4804C11.0352 11.8037 10.376 11.0478 10.0244 10.4941C9.91016 10.292 9.91895 10.125 10.1211 9.92283L10.7891 9.24607C11.5273 8.50779 11.4658 7.57615 10.9209 6.79392L9.14551 4.2363C8.60059 3.45408 8.01172 3.09373 7.37891 3.08494C6.8252 3.07615 6.24512 3.33103 5.65625 3.85837C5.57715 3.92869 5.50684 3.99021 5.43652 4.05173C4.43457 4.94822 4.02148 5.95896 4.02148 7.47947C4.02148 9.99314 5.56836 13.0517 8.40723 15.8906C11.2285 18.7119 14.2959 20.2763 16.8008 20.2763ZM16.8096 18.9228C14.5684 18.9668 11.6943 17.2441 9.41797 14.9765C7.12402 12.6914 5.32227 9.72068 5.36621 7.47947C5.38379 6.51267 5.72656 5.67771 6.41211 5.08005C6.47363 5.02732 6.51758 4.98337 6.5791 4.93943C6.84277 4.71091 7.12402 4.58787 7.37891 4.58787C7.63379 4.58787 7.8623 4.68455 8.0293 4.94822L9.73438 7.50584C9.91895 7.7783 9.93652 8.08591 9.66406 8.35837L8.89062 9.13181C8.28418 9.73826 8.32812 10.4765 8.76758 11.0654C9.26855 11.7422 10.1387 12.7265 10.8154 13.3945C11.4834 14.0713 12.5469 15.0205 13.2324 15.5302C13.8213 15.9697 14.5596 16.0136 15.166 15.4072L15.9395 14.6338C16.2119 14.3613 16.5107 14.3789 16.792 14.5547L19.3496 16.2597C19.6133 16.4355 19.71 16.6552 19.71 16.9189C19.71 17.1738 19.5869 17.4551 19.3584 17.7187C19.3057 17.7802 19.2705 17.8242 19.2178 17.8857C18.6201 18.5713 17.7852 18.9052 16.8096 18.9228Z" fill="white"/>
</svg>
