<svg width="24" height="24" viewBox="0 0 24 24" fill="none" xmlns="http://www.w3.org/2000/svg">
<path d="M16.4824 17.458L16.9541 7.51855H17.7744C18.0547 7.51855 18.2803 7.2793 18.2803 6.99902C18.2803 6.71875 18.0547 6.48633 17.7744 6.48633H14.6504V5.46094C14.6504 4.47656 13.9873 3.84766 12.9346 3.84766H10.3779C9.3252 3.84766 8.66895 4.47656 8.66895 5.46094V6.48633H5.55176C5.27832 6.48633 5.0459 6.72559 5.0459 6.99902C5.0459 7.2793 5.27832 7.51855 5.55176 7.51855H6.37891L6.85059 17.4648C6.89844 18.4424 7.54102 19.0713 8.53223 19.0713H14.8008C15.7783 19.0713 16.4346 18.4355 16.4824 17.458ZM9.7627 5.5293C9.7627 5.13965 10.043 4.86621 10.46 4.86621H12.8594C13.2764 4.86621 13.5635 5.13965 13.5635 5.5293V6.48633H9.7627V5.5293ZM8.62793 18.0391C8.23828 18.0391 7.94434 17.7451 7.92383 17.3418L7.44531 7.51855H15.8604L15.4092 17.3418C15.3887 17.752 15.1016 18.0391 14.6914 18.0391H8.62793ZM13.6934 16.8428C13.9189 16.8428 14.083 16.6582 14.0898 16.3984L14.2949 9.22754C14.3018 8.97461 14.1309 8.7832 13.8984 8.7832C13.6865 8.7832 13.5088 8.98145 13.502 9.22754L13.2969 16.3916C13.29 16.6445 13.4609 16.8428 13.6934 16.8428ZM9.63965 16.8428C9.87207 16.8428 10.043 16.6445 10.0361 16.3916L9.82422 9.22754C9.81738 8.98145 9.63965 8.7832 9.42773 8.7832C9.19531 8.7832 9.02441 8.97461 9.03125 9.22754L9.23633 16.3984C9.24316 16.6582 9.40723 16.8428 9.63965 16.8428ZM11.6631 16.8428C11.8887 16.8428 12.0801 16.6445 12.0801 16.3984V9.22754C12.0801 8.98145 11.8887 8.7832 11.6631 8.7832C11.4443 8.7832 11.2529 8.98145 11.2529 9.22754V16.3984C11.2529 16.6445 11.4443 16.8428 11.6631 16.8428Z" fill="#A3A3A3"/>
</svg>
